HIERARCHY
ROOT Hips
{
	OFFSET 0.00000 0.00000 0.00000
	CHANNELS 6 Xposition Yposition Zposition Zrotation Yrotation Xrotation 
	JOINT LHipJoint
	{
		OFFSET 0 0 0
		CHANNELS 3 Zrotation Yrotation Xrotation
		JOINT LeftUpLeg
		{
			OFFSET 1.86795 -1.59681 0.65681
			CHANNELS 3 Zrotation Yrotation Xrotation
			JOINT LeftLeg
			{
				OFFSET 2.30491 -6.33268 0.00000
				CHANNELS 3 Zrotation Yrotation Xrotation
				JOINT LeftFoot
				{
					OFFSET 2.46780 -6.78022 0.00000
					CHANNELS 3 Zrotation Yrotation Xrotation
					JOINT LeftToeBase
					{
						OFFSET 0.07897 -0.21698 1.59652
						CHANNELS 3 Zrotation Yrotation Xrotation
						End Site
						{
							OFFSET 0.00000 -0.00000 0.82310
						}
					}
				}
			}
		}
	}
	JOINT RHipJoint
	{
		OFFSET 0 0 0
		CHANNELS 3 Zrotation Yrotation Xrotation
		JOINT RightUpLeg
		{
			OFFSET -1.93650 -1.59681 0.65681
			CHANNELS 3 Zrotation Yrotation Xrotation
			JOINT RightLeg
			{
				OFFSET -2.29410 -6.30299 0.00000
				CHANNELS 3 Zrotation Yrotation Xrotation
				JOINT RightFoot
				{
					OFFSET -2.48738 -6.83403 0.00000
					CHANNELS 3 Zrotation Yrotation Xrotation
					JOINT RightToeBase
					{
						OFFSET -0.08699 -0.23899 1.89395
						CHANNELS 3 Zrotation Yrotation Xrotation
						End Site
						{
							OFFSET -0.00000 -0.00000 0.96904
						}
					}
				}
			}
		}
	}
	JOINT LowerBack
	{
		OFFSET 0 0 0
		CHANNELS 3 Zrotation Yrotation Xrotation
		JOINT Spine
		{
			OFFSET 0.03629 1.99740 -0.07548
			CHANNELS 3 Zrotation Yrotation Xrotation
			JOINT Spine1
			{
				OFFSET 0.03970 1.94298 0.17218
				CHANNELS 3 Zrotation Yrotation Xrotation
				JOINT Neck
				{
					OFFSET 0 0 0
					CHANNELS 3 Zrotation Yrotation Xrotation
					JOINT Neck1
					{
						OFFSET -0.05054 1.79469 0.04241
						CHANNELS 3 Zrotation Yrotation Xrotation
						JOINT Head
						{
							OFFSET 0.05195 1.78475 -0.22133
							CHANNELS 3 Zrotation Yrotation Xrotation
							End Site
							{
								OFFSET 0.02420 1.80711 -0.07950
							}
						}
					}
				}
				JOINT LeftShoulder
				{
					OFFSET 0 0 0
					CHANNELS 3 Zrotation Yrotation Xrotation
					JOINT LeftArm
					{
						OFFSET 2.92134 1.19850 0.36056
						CHANNELS 3 Zrotation Yrotation Xrotation
						JOINT LeftForeArm
						{
							OFFSET 4.84137 -0.00000 0.00000
							CHANNELS 3 Zrotation Yrotation Xrotation
							JOINT LeftHand
							{
								OFFSET 3.24520 -0.00000 -0.00000
								CHANNELS 3 Zrotation Yrotation Xrotation
								JOINT LeftFingerBase
								{
									OFFSET 0 0 0
									CHANNELS 3 Zrotation Yrotation Xrotation
									JOINT LeftHandIndex1
									{
										OFFSET 0.52122 -0.00000 0.00000
										CHANNELS 3 Zrotation Yrotation Xrotation
										End Site
										{
											OFFSET 0.42022 -0.00000 0.00000
										}
									}
								}
								JOINT LThumb
								{
									OFFSET 0 0 0
									CHANNELS 3 Zrotation Yrotation Xrotation
									End Site
									{
										OFFSET 0.42664 -0.00000 0.42664
									}
								}
							}
						}
					}
				}
				JOINT RightShoulder
				{
					OFFSET 0 0 0
					CHANNELS 3 Zrotation Yrotation Xrotation
					JOINT RightArm
					{
						OFFSET -2.84327 1.20795 0.50191
						CHANNELS 3 Zrotation Yrotation Xrotation
						JOINT RightForeArm
						{
							OFFSET -4.72284 -0.00000 0.00000
							CHANNELS 3 Zrotation Yrotation Xrotation
							JOINT RightHand
							{
								OFFSET -3.23459 -0.00000 0.00000
								CHANNELS 3 Zrotation Yrotation Xrotation
								JOINT RightFingerBase
								{
									OFFSET 0 0 0
									CHANNELS 3 Zrotation Yrotation Xrotation
									JOINT RightHandIndex1
									{
										OFFSET -0.30742 -0.00000 0.00000
										CHANNELS 3 Zrotation Yrotation Xrotation
										End Site
										{
											OFFSET -0.24785 -0.00000 0.00000
										}
									}
								}
								JOINT RThumb
								{
									OFFSET 0 0 0
									CHANNELS 3 Zrotation Yrotation Xrotation
									End Site
									{
										OFFSET -0.25163 -0.00000 0.25163
									}
								}
							}
						}
					}
				}
			}
		}
	}
}
MOTION
Frames: 12
Frame Time: 0.0206186
0.00 0.00 0.00 0 0 0 0 0 0 -21 0 0 0 0 0 0 0 0 0 0 0 0 0 0 21 0 0 0 0 0 0 0 0 0 0 0 0 0 0 0 0 0 0 0 0 0 0 -16 0 0 21 0 0 11 0 0 0 -8 0 0 0 0 0 0 0 0 0 0 0 0 0 0 0 0 0 0 0 0 8 0 0 0 0 0 0 0 0 0 0 0 0 0 0 0 0 0
0.00 0.00 0.00 1.7418 -20.8366 12.0982 0.0000 0.0000 0.0000 -25.8339 -22.5928 -12.5340 1.6624 8.1243 23.0923 -0.1028 17.6051 -24.0154 0.0200 0.9122 2.5074 0.0000 0.0000 0.0000 16.9864 13.2024 -29.8012 -5.2227 -13.6303 41.7761 0.8344 -20.5478 -21.5790 -0.1782 -2.7193 7.4981 -1.3595 0.0498 3.9694 -0.1221 0.0119 1.8837 0.6366 -0.0036 -0.2931 -6.5013 1.1132 -5.8460 8.6744 0.9182 15.1846 3.8691 0.6564 5.4271 -0.0000 -0.0000 0.0000 -84.4912 3.1371 37.2560 25.3832 -36.5931 -8.5173 -0.0000 -0.0000 24.2462 -23.8701 43.0683 -16.8138 -7.1250 0.0000 -0.0000 -69.7425 59.7684 -34.4642 -0.0000 -0.0000 0.0000 81.0158 3.4573 47.5197 -18.2600 28.4888 -4.6726 0.0000 -0.0000 -11.1592 -15.6800 19.4998 -5.3531 7.1250 -0.0000 -0.0000 8.1554 -9.9476 6.6939
0.00 0.00 0.00 0.6366 -18.9763 11.4407 0.0000 0.0000 0.0000 -21.4711 -7.8695 -14.4051 4.0607 12.2407 36.5890 0.2494 10.2398 -18.0032 0.5534 -4.7653 -13.2404 0.0000 0.0000 0.0000 15.7290 26.9721 -26.7931 -2.4158 -9.6831 27.9566 1.2175 -21.5070 -18.8442 -1.3196 -7.2754 20.5340 0.7256 -0.5229 4.1411 0.7811 -0.6592 1.2087 0.4267 -0.3315 -1.0797 -6.1832 1.3587 -8.0703 8.6868 1.1450 18.3244 3.9426 0.8348 6.7874 -0.0000 -0.0000 0.0000 -85.8519 4.0422 32.3206 24.0286 -35.1945 -7.7230 -0.0000 -0.0000 24.4632 -16.1506 42.6142 -11.0933 -7.1250 0.0000 -0.0000 -63.0021 61.5847 -32.0022 -0.0000 -0.0000 0.0000 82.3749 1.2755 45.3688 -16.2584 25.8697 -3.7580 0.0000 -0.0000 -9.8094 -16.2580 18.6170 -5.3188 7.1250 -0.0000 -0.0000 7.7465 -10.7810 6.2193
0.00 0.00 0.00 -0.7671 -16.8945 11.3215 0.0000 0.0000 0.0000 -17.6032 -7.5203 -25.1552 8.7137 16.6199 55.0946 -0.2564 9.6790 -7.5268 1.3922 7.4650 21.1006 0.0000 0.0000 0.0000 19.8934 26.8659 -23.3122 -2.3798 -9.6160 27.7421 1.9367 -25.5620 -20.2888 -0.7406 -5.4975 15.3330 2.0651 -0.6025 4.8910 1.3296 -0.6771 1.0894 0.2489 -0.3462 -1.6297 -6.5555 0.9514 -8.2674 8.8630 0.6328 18.2133 4.0259 0.5847 6.8255 -0.0000 0.0000 0.0000 -85.8157 3.5873 33.5856 24.6040 -35.7965 -8.0571 -0.0000 -0.0000 23.7436 -16.2035 43.6251 -11.3370 -7.1250 0.0000 -0.0000 -64.5885 62.1101 -33.9554 -0.0000 0.0000 0.0000 81.9888 0.7235 45.6702 -16.6356 26.3748 -3.9241 0.0000 -0.0000 -11.1571 -15.6765 17.7352 -4.8863 7.1250 -0.0000 -0.0000 8.0984 -11.7440 6.3459
0.00 0.00 0.00 -3.2803 -17.4343 11.4654 0.0000 0.0000 0.0000 -6.2898 -33.0235 -31.4954 1.2493 7.0865 19.9718 0.0151 22.4899 -31.8013 2.0983 9.0680 26.0081 0.0000 0.0000 0.0000 31.7647 21.4235 -3.7396 -1.0306 -6.4575 18.1178 1.9017 -26.9454 -24.6937 -0.8341 -5.8261 16.2806 5.3767 0.9375 1.7069 1.2126 1.3997 -0.8615 -1.8081 0.6409 -1.7470 -6.1776 0.9216 -8.6214 8.3387 0.5132 20.9014 3.8578 0.5202 7.7793 0.0000 -0.0000 0.0000 -87.3766 6.0038 29.4985 24.6124 -35.8052 -8.0621 -0.0000 -0.0000 25.6979 -11.2655 41.5577 -7.5275 -7.1250 0.0000 -0.0000 -57.3662 62.3017 -28.9495 0.0000 -0.0000 0.0000 79.4101 0.3449 46.0437 -16.4204 26.0874 -3.8290 0.0000 -0.0000 -12.5834 -18.3400 19.5014 -6.3148 7.1250 -0.0000 -0.0000 6.4350 -9.6223 5.3033
0.00 0.00 0.00 -0.2285 -21.4382 8.1228 0.0000 0.0000 0.0000 -17.1994 -23.2044 -25.1614 1.7097 8.2332 23.4247 -0.6020 14.6682 -11.3619 0.0100 0.6451 1.7728 0.0000 0.0000 0.0000 26.0932 5.2803 -10.8461 -5.6071 -14.0365 43.3838 0.5670 -13.4828 -7.9459 -0.0823 1.8510 -5.0941 1.9243 0.7733 0.2748 -0.1221 1.0533 -1.7518 -1.2233 0.4939 -1.9125 -5.2351 1.5325 -8.1546 8.2188 1.0853 22.7602 3.7524 0.8379 8.2742 0.0000 0.0000 0.0000 -86.8107 8.5300 25.1408 20.6714 -31.4428 -5.8776 -0.0000 -0.0000 26.3059 -10.3802 44.1877 -7.2759 -7.1250 0.0000 -0.0000 -60.7779 64.0582 -33.7175 0.0000 0.0000 0.0000 81.6773 -3.1043 42.5556 -16.4468 26.1228 -3.8406 0.0000 -0.0000 -12.8760 -20.7843 20.4825 -7.5654 7.1250 -0.0000 -0.0000 4.9273 -8.2670 4.1836
0.00 0.00 0.00 1.9044 -22.7235 7.0767 0.0000 0.0000 0.0000 -21.5285 -21.3941 -21.1944 1.5637 7.8912 22.3842 -0.4740 14.0874 -12.9350 0.1338 2.3575 6.4949 0.0000 0.0000 0.0000 21.4142 4.1876 -22.1182 -10.4450 -17.6526 60.9656 0.4967 -12.8754 -0.9450 -0.1913 2.8166 -7.7685 -0.2367 0.5126 0.7433 -0.2929 0.6706 -1.9753 -0.1869 0.3353 -2.4404 -4.7640 1.9105 -8.4663 7.3436 1.7310 22.8651 3.4396 1.1014 8.3386 0.0000 -0.0000 0.0000 -86.6143 9.8590 28.1128 21.7719 -32.7183 -6.4621 -0.0000 -0.0000 25.5756 -13.6167 43.7529 -9.5097 -7.1250 0.0000 -0.0000 -62.7090 62.8989 -33.6243 0.0000 -0.0000 0.0000 81.1925 -3.2725 41.8642 -16.6164 26.3493 -3.9155 0.0000 -0.0000 -11.7577 -17.3521 20.1255 -6.1364 7.1250 -0.0000 -0.0000 7.1061 -9.1065 5.9389
0.00 0.00 0.00 4.4299 -19.8858 3.6912 0.0000 0.0000 0.0000 -28.9664 -13.9959 -6.6998 1.5775 7.9242 22.4840 0.2983 11.1188 -19.5698 0.0518 -1.4688 -4.0396 0.0000 0.0000 0.0000 4.5395 43.3483 -22.9072 -1.7975 -8.4309 24.0308 -3.2715 -24.7199 -49.0696 -5.8374 -14.2689 44.3257 -2.0472 -0.4776 0.4116 -0.4225 -0.6685 -1.2379 0.7255 -0.3132 -1.4805 -5.4905 1.6823 -8.0736 7.5937 1.4004 24.0742 3.6510 0.8944 8.6873 -0.0000 -0.0000 0.0000 -84.6643 4.8028 32.4841 24.6855 -35.8808 -8.1048 -0.0000 -0.0000 24.8233 -10.0283 43.9848 -7.0013 -7.1250 0.0000 -0.0000 -60.1484 64.0481 -33.2307 -0.0000 -0.0000 0.0000 82.3100 -3.6283 39.5876 -15.5198 24.8652 -3.4415 0.0000 -0.0000 -11.4394 -17.4779 20.4477 -6.2774 7.1250 -0.0000 -0.0000 7.0427 -8.7601 5.9342
0.00 0.00 0.00 0.2068 -3.7325 7.9375 0.0000 0.0000 0.0000 -15.0540 -29.3647 -9.4969 1.2379 7.0552 19.8790 -0.4109 18.0394 -21.6180 0.0050 -0.4563 -1.2537 0.0000 0.0000 0.0000 20.0741 29.4439 -8.3595 -1.4316 -7.5654 21.4017 1.5099 -28.1448 -30.6976 -2.2100 -9.2904 26.7081 0.6067 -0.6112 -1.2090 0.0794 -0.8197 -1.1586 -0.2646 -0.4140 -0.5154 -5.7408 0.8275 -9.0358 8.3306 0.2661 22.8895 3.8270 0.4621 8.5439 -0.0000 0.0000 0.0000 -81.6565 -1.9496 33.3404 20.7528 -31.5387 -5.9201 -0.0000 -0.0000 26.2512 -11.5912 44.8688 -8.2337 -7.1250 0.0000 -0.0000 -62.9148 64.0715 -35.3745 -0.0000 0.0000 0.0000 70.1263 1.3012 87.4077 -22.1170 33.1090 -6.6496 0.0000 -0.0000 -35.2102 -32.5203 14.8212 -9.2629 7.1250 -0.0000 -0.0000 -3.3204 -12.5793 -2.5218
0.00 0.00 0.00 1.0824 -4.3955 8.1470 0.0000 0.0000 0.0000 -16.1803 -28.6183 -9.4109 1.1398 6.7798 19.0646 -0.3830 17.7356 -21.4052 0.0050 -0.4562 -1.2536 0.0000 0.0000 0.0000 18.5919 28.4332 -9.8365 -1.5668 -7.8987 22.4067 1.7539 -27.9288 -28.3786 -1.5844 -7.9407 22.5343 -0.0408 -0.3332 -0.9713 0.4352 -0.4441 -0.6726 0.4644 -0.2212 -0.1400 -5.8816 0.8294 -8.5480 7.2235 0.6103 20.8317 3.4404 0.5020 7.7493 -0.0000 -0.0000 0.0000 -80.3420 -1.6017 40.2256 22.2555 -33.2646 -6.7255 -0.0000 -0.0000 24.6771 -13.1501 43.8280 -9.1901 -7.1250 0.0000 -0.0000 -62.4506 63.0708 -33.6636 -0.0000 -0.0000 0.0000 50.3389 2.4844 67.3991 -80.6565 59.6675 -51.9174 0.0000 -0.0000 -48.9424 -39.3869 24.7172 -18.9475 7.1250 -0.0000 -0.0000 -5.8849 0.6539 -5.9832
0.00 0.00 0.00 1.1366 -4.3187 8.0347 0.0000 0.0000 0.0000 -16.3426 -28.4313 -9.4316 1.1460 6.7977 19.1174 -0.4790 17.9125 -20.6277 0.0132 -0.7423 -2.0400 0.0000 0.0000 0.0000 18.5141 28.2666 -9.7911 -1.5740 -7.9158 22.4587 1.8122 -28.0093 -28.0731 -1.7006 -8.2125 23.3613 0.1932 -0.6503 -0.4721 0.5776 -0.8659 -0.6810 0.4818 -0.4325 -0.4260 -6.1204 1.1251 -8.6804 6.9215 1.1155 21.2107 3.4351 0.6954 7.8638 0.0000 0.0000 0.0000 -80.0071 -0.6867 40.5995 22.9908 -34.0787 -7.1331 -0.0000 -0.0000 24.5825 -13.3892 43.9011 -9.3726 -7.1250 0.0000 -0.0000 -62.7623 63.0425 -33.8621 0.0000 0.0000 0.0000 50.6720 3.0470 57.5248 -100.2714 59.5976 -68.8833 0.0000 -0.0000 -47.4325 -40.5174 27.6503 -21.6333 7.1250 -0.0000 -0.0000 -5.8577 4.4323 -6.3250
0.00 0.00 0.00 1.3973 -4.2305 8.3587 0.0000 0.0000 0.0000 -16.5710 -28.7093 -9.4094 1.0654 6.5621 18.4244 -0.4909 17.9231 -20.5072 0.0051 -0.4630 -1.2721 0.0000 0.0000 0.0000 17.8998 28.7960 -10.2983 -1.6305 -8.0498 22.8653 1.6859 -27.9189 -28.9071 -1.7069 -8.2270 23.4056 0.3513 -1.2410 -0.6248 0.5943 -1.6536 -0.9104 0.4092 -0.8272 -0.5738 -5.2018 1.7679 -7.9014 6.4123 1.8973 21.7061 3.1746 1.0768 7.8474 -0.0000 -0.0000 0.0000 -79.3886 0.8066 41.4383 23.0244 -34.1155 -7.1520 -0.0000 -0.0000 24.7939 -12.0130 43.4404 -8.3242 -7.1250 0.0000 -0.0000 -60.8978 63.1800 -32.6443 -0.0000 -0.0000 0.0000 49.2821 8.7127 45.1371 -122.8555 55.4997 -88.0238 0.0000 -0.0000 -44.2606 -41.7478 30.8863 -24.6142 7.1250 -0.0000 -0.0000 -5.7115 8.5696 -6.5290
